M48
; DRILL file KiCad 10.0.0 date 2026-03-29T10:38:20
; FORMAT={-:-/ absolute / metric / decimal}
; #@! TF.CreationDate,2026-03-29T10:38:20-05:00
; #@! TF.GenerationSoftware,Kicad,Pcbnew,10.0.0
; #@! TF.FileFunction,Plated,1,2,PTH
FMAT,2
METRIC
; #@! TA.AperFunction,Plated,PTH,ComponentDrill
T1C1.000
; #@! TA.AperFunction,Plated,PTH,ComponentDrill
T2C1.500
%
G90
G05
T1
X126.375Y-40.38
X126.375Y-42.92
X126.375Y-45.46
X126.375Y-48.0
X126.375Y-50.54
X126.375Y-53.08
X126.375Y-55.62
X141.625Y-40.38
X141.625Y-42.92
X141.625Y-45.46
X141.625Y-48.0
X141.625Y-50.54
X141.625Y-53.08
X141.625Y-55.62
T2
X120.69Y-65.46
X120.69Y-84.46
X127.04Y-62.92
X127.04Y-81.92
X139.69Y-65.46
X139.69Y-84.46
X146.04Y-62.92
X146.04Y-81.92
M30
